<?xml version="1.0" encoding="UTF-8"?><svg id="Layer_2" xmlns="http://www.w3.org/2000/svg" viewBox="0 0 901.69 137.75"><g id="Layer_1-2"><path d="M11.45,65.06c-2.39,5.7-3.6,11.95-3.6,18.59s1.21,12.89,3.6,18.59c2.39,5.7,5.74,10.69,9.98,14.82,4.24,4.14,9.33,7.45,15.13,9.84,5.79,2.39,12.15,3.6,18.89,3.6,6.16,0,12-.99,17.36-2.94,5.34-1.94,10.31-5.15,14.79-9.53l.71-.69,5.14,5.14-.68.71c-4.69,4.89-10.34,8.58-16.8,10.97-6.43,2.38-13.38,3.59-20.67,3.59-7.89,0-15.29-1.39-21.98-4.12-6.69-2.74-12.58-6.54-17.49-11.31-4.92-4.77-8.83-10.53-11.62-17.13-2.79-6.59-4.2-13.84-4.2-21.54s1.41-14.95,4.2-21.54c2.79-6.59,6.7-12.36,11.62-17.13,4.92-4.77,10.81-8.57,17.49-11.31,6.69-2.74,14.09-4.12,21.98-4.12,7.28,0,14.23,1.18,20.67,3.51,6.47,2.34,12.12,6.01,16.81,10.9l.68.71-5.14,5.14-.71-.69c-4.48-4.38-9.45-7.56-14.79-9.45-5.37-1.9-11.21-2.87-17.37-2.87-6.73,0-13.09,1.21-18.89,3.6-5.8,2.39-10.9,5.7-15.13,9.84-4.24,4.14-7.59,9.12-9.98,14.82ZM236.61,87.79c4.47-5.7,6.74-13,6.74-21.69,0-11.26-3.86-20.17-11.46-26.5-7.55-6.27-18.11-9.46-31.39-9.46h-37.9v7.25h38.05c11.4,0,20.17,2.52,26.05,7.49,5.84,4.93,8.79,12.07,8.79,21.21s-2.96,16.31-8.8,21.29c-5.88,5.02-14.65,7.56-26.05,7.56h-38.05v42.2h7.85v-35.1h30.05c2.02,0,3.96-.08,5.78-.23,1.62-.13,3.19-.29,4.7-.46l25.76,35.79h9.06l-26.87-37.65c7.53-2.4,13.47-6.33,17.69-11.71ZM346.41,30.15l-49.37,107h8.51l44.36-97,44.09,96.41.27.58h8.66l-49.53-107h-6.98ZM493.15,126.19l-42.85-96.04h-8.79l47.73,106.41.26.59h6.99l48-107h-8.49l-42.85,96.04ZM668.7,129.9h-64.05v7.25h71.3v-16h-7.25v8.75ZM604.65,35.15h64.05v8.75h7.25v-16h-71.3v7.25ZM604.65,86.45h71.3v-7.25h-71.3v7.25ZM832.69,45.2c-4.97-4.72-11.01-8.45-17.96-11.08-6.93-2.63-14.7-3.96-23.08-3.96h-41.8v7.25h41.5c7.54,0,14.41,1.16,20.42,3.46,6,2.29,11.21,5.53,15.49,9.62,4.28,4.08,7.6,8.99,9.89,14.58,2.29,5.61,3.45,11.87,3.45,18.6s-1.16,12.99-3.45,18.6c-2.29,5.59-5.61,10.5-9.89,14.58-4.29,4.09-9.5,7.33-15.49,9.61-6,2.29-12.87,3.46-20.42,3.46h-33.65v-47.25h-7.85v54.5h41.8c8.39,0,16.15-1.33,23.08-3.97,6.94-2.63,12.98-6.36,17.96-11.08,4.98-4.73,8.9-10.44,11.63-16.99,2.74-6.54,4.13-13.76,4.13-21.46s-1.39-14.92-4.13-21.46c-2.74-6.54-6.65-12.26-11.63-16.99ZM851.87,4.9h7.27v20.17h5.56V4.9h7.3V0h-20.14v4.9ZM895.33,0l-6.33,16.42-6.33-16.42h-6.36v25.07h5.6v-9.24s-.15-4.18-.15-4.18l5.25,13.42h3.98l5.26-13.42-.15,4.21v9.21h5.6V0h-6.36Z"/></g></svg>