<?xml version="1.0" encoding="UTF-8"?>
<svg id="Layer_2" data-name="Layer 2" xmlns="http://www.w3.org/2000/svg" viewBox="0 0 375 525.55" fill="#3F3F46">
  <defs>
    <style>
      .cls-1 {
        fill: #1C1C1F;
      }

      .cls-2 {
        fill: #00C853;
        font-size: 60px;
        font-family: Orbitron-Black, Orbitron;
        font-weight: 800;
      }

      .cls-3 {
        fill: #00C853;
        font-size: 72px;
        font-family: Orbitron-Black, Orbitron;
        font-weight: 800;
      }

      polyline {
        fill: none;
        stroke: #00C853;
        stroke-width: 4;
        stroke-linecap: round;
        stroke-linejoin: round;
      }
    </style>
  </defs>
  <g id="Layer_1-2" data-name="Layer 1">
    <g>
      <g>
        <g>
          <g>
            <rect class="cls-1" x="2" y="151.55" width="10" height="30"/>
            <path d="m10,153.55v26h-6v-26h6m4-4H0v34h14v-34h0Z"/>
          </g>
          <g>
            <rect class="cls-1" x="15" y="161.05" width="25" height="11"/>
            <path d="m38,163.05v7h-21v-7h21m4-4H13v15h29v-15h0Z"/>
          </g>
        </g>
        <g>
          <g>
            <rect class="cls-1" x="363" y="35" width="10" height="30"/>
            <path d="m371,37v26h-6v-26h6m4-4h-14v34h14v-34h0Z"/>
          </g>
          <g>
            <rect class="cls-1" x="335" y="44.5" width="25" height="11"/>
            <path d="m358,46.5v7h-21v-7h21m4-4h-29v15h29v-15h0Z"/>
          </g>
        </g>
        <g>
          <path class="cls-1" d="m70.93,214.55c-26.47,0-48-21.53-48-48s21.53-48,48-48h150c26.47,0,48,21.53,48,48s-21.53,48-48,48H70.93Z"/>
          <path d="m220.93,120.55c25.36,0,46,20.64,46,46s-20.64,46-46,46H70.93c-25.36,0-46-20.64-46-46s20.64-46,46-46h150m0-4H70.93c-27.61,0-50,22.39-50,50h0c0,27.61,22.39,50,50,50h150c27.61,0,50-22.39,50-50h0c0-27.61-22.39-50-50-50h0Z"/>
        </g>
        <g>
          <path class="cls-1" d="m153.63,98c-26.47,0-48-21.53-48-48S127.16,2,153.63,2h150c26.47,0,48,21.53,48,48s-21.53,48-48,48h-150Z"/>
          <path d="m303.63,4c25.36,0,46,20.64,46,46s-20.64,46-46,46h-150c-25.36,0-46-20.64-46-46S128.27,4,153.63,4h150M303.63,0h-150C126.02,0,103.63,22.39,103.63,50h0c0,27.61,22.39,50,50,50h150c27.61,0,50-22.39,50-50h0C353.63,22.39,331.25,0,303.63,0h0Z"/>
        </g>
        <g>
          <path class="cls-1" d="m220.96,214.55c-17.12,0-33.07-9.2-41.62-24.01l-67.28-116.53c-13.23-22.92-5.35-52.34,17.57-65.57,7.3-4.21,15.58-6.44,23.95-6.44,17.12,0,33.07,9.2,41.62,24.01l67.28,116.53c6.41,11.1,8.11,24.04,4.8,36.42-3.32,12.38-11.26,22.74-22.36,29.15-7.3,4.21-15.58,6.44-23.95,6.44Z"/>
          <path d="m153.59,0v4s0,0,0,0c16.41,0,31.69,8.82,39.88,23.01l67.28,116.53c6.14,10.64,7.78,23.04,4.6,34.91-3.18,11.87-10.79,21.79-21.43,27.93-6.99,4.04-14.93,6.17-22.95,6.17-16.41,0-31.69-8.82-39.88-23.01l-67.28-116.53c-6.14-10.64-7.78-23.04-4.6-34.91,3.18-11.87,10.79-21.79,21.43-27.93,6.99-4.04,14.93-6.17,22.95-6.17V0m0,0c-8.48,0-17.08,2.16-24.95,6.71h0c-23.91,13.81-32.11,44.39-18.3,68.3l67.28,116.53c9.26,16.04,26.07,25.01,43.35,25.01,8.48,0,17.08-2.16,24.95-6.71h0c23.91-13.81,32.11-44.39,18.3-68.3L196.94,25.01C187.68,8.97,170.87,0,153.59,0h0Z"/>
        </g>
        <g>
          <circle class="cls-1" cx="67" cy="166.74" r="15"/>
          <path d="m67,153.74c7.17,0,13,5.83,13,13s-5.83,13-13,13-13-5.83-13-13,5.83-13,13-13m0-4c-9.39,0-17,7.61-17,17s7.61,17,17,17,17-7.61,17-17-7.61-17-17-17h0Z"/>
        </g>
        <g>
          <circle class="cls-1" cx="302" cy="53.74" r="15"/>
          <path d="m302,40.74c7.17,0,13,5.83,13,13s-5.83,13-13,13-13-5.83-13-13,5.83-13,13-13m0-4c-9.39,0-17,7.61-17,17s7.61,17,17,17,17-7.61,17-17-7.61-17-17-17h0Z"/>
        </g>
        <g>
          <circle class="cls-1" cx="153.5" cy="50.24" r="42.5"/>
          <path d="m153.5,9.74c22.33,0,40.5,18.17,40.5,40.5s-18.17,40.5-40.5,40.5-40.5-18.17-40.5-40.5,18.17-40.5,40.5-40.5m0-4c-24.58,0-44.5,19.92-44.5,44.5s19.92,44.5,44.5,44.5,44.5-19.92,44.5-44.5S178.08,5.74,153.5,5.74h0Z"/>
        </g>
        <g>
          <circle class="cls-1" cx="220.5" cy="166.24" r="42.5"/>
          <path d="m220.5,125.74c22.33,0,40.5,18.17,40.5,40.5s-18.17,40.5-40.5,40.5-40.5-18.17-40.5-40.5,18.17-40.5,40.5-40.5m0-4c-24.58,0-44.5,19.92-44.5,44.5s19.92,44.5,44.5,44.5,44.5-19.92,44.5-44.5-19.92-44.5-44.5-44.5h0Z"/>
        </g>
        <text class="cls-2" transform="translate(137.77 71.84)"><tspan x="0" y="0">1</tspan></text>
        <text class="cls-2" transform="translate(195.87 187.84)"><tspan x="0" y="0">2</tspan></text>
        <polyline points="180.66 38.57 192.34 50.24 180.66 61.92"/>
        <polyline points="193.34 177.92 181.66 166.24 193.34 154.57"/>
      </g>
      <g>
        <g>
          <g>
            <rect class="cls-1" x="363" y="460.55" width="10" height="30"/>
            <path d="m371,462.55v26h-6v-26h6m4-4h-14v34h14v-34h0Z"/>
          </g>
          <g>
            <rect class="cls-1" x="335" y="470.05" width="25" height="11"/>
            <path d="m358,472.05v7h-21v-7h21m4-4h-29v15h29v-15h0Z"/>
          </g>
        </g>
        <g>
          <g>
            <rect class="cls-1" x="2" y="344" width="10" height="30"/>
            <path d="m10,346v26h-6v-26h6m4-4H0v34h14v-34h0Z"/>
          </g>
          <g>
            <rect class="cls-1" x="15" y="353.5" width="25" height="11"/>
            <path d="m38,355.5v7h-21v-7h21m4-4H13v15h29v-15h0Z"/>
          </g>
        </g>
        <g>
          <path class="cls-1" d="m153.63,523.55c-26.47,0-48-21.53-48-48s21.53-48,48-48h150c26.47,0,48,21.53,48,48s-21.53,48-48,48h-150Z"/>
          <path d="m303.63,429.55c25.36,0,46,20.64,46,46s-20.64,46-46,46h-150c-25.36,0-46-20.64-46-46s20.64-46,46-46h150m0-4h-150c-27.61,0-50,22.39-50,50h0c0,27.61,22.39,50,50,50h150c27.61,0,50-22.39,50-50h0c0-27.61-22.39-50-50-50h0Z"/>
        </g>
        <g>
          <path class="cls-1" d="m70.93,407c-26.47,0-48-21.53-48-48s21.53-48,48-48h150c26.47,0,48,21.53,48,48s-21.53,48-48,48H70.93Z"/>
          <path d="m220.93,313c25.36,0,46,20.64,46,46s-20.64,46-46,46H70.93c-25.36,0-46-20.64-46-46s20.64-46,46-46h150m0-4H70.93c-27.61,0-50,22.39-50,50h0c0,27.61,22.39,50,50,50h150c27.61,0,50-22.39,50-50h0c0-27.61-22.39-50-50-50h0Z"/>
        </g>
        <g>
          <path class="cls-1" d="m153.59,523.55c-8.37,0-16.66-2.23-23.95-6.44-22.92-13.23-30.8-42.65-17.57-65.57l67.28-116.53c8.55-14.81,24.5-24.01,41.62-24.01,8.37,0,16.66,2.23,23.95,6.44,11.1,6.41,19.05,16.76,22.36,29.15s1.62,25.32-4.8,36.42l-67.28,116.53c-8.55,14.81-24.5,24.01-41.62,24.01Z"/>
          <path d="m220.97,309v4s0,0,0,0c8.02,0,15.96,2.13,22.95,6.17,10.64,6.14,18.25,16.06,21.43,27.93,3.18,11.87,1.55,24.26-4.6,34.91l-67.28,116.53c-8.19,14.19-23.48,23.01-39.88,23.01-8.02,0-15.96-2.13-22.95-6.17-10.64-6.14-18.25-16.06-21.43-27.93s-1.55-24.26,4.6-34.91l67.28-116.53c8.19-14.19,23.48-23.01,39.88-23.01v-4m0,0c-17.28,0-34.09,8.97-43.35,25.01l-67.28,116.53c-13.81,23.91-5.61,54.49,18.3,68.3h0c7.87,4.55,16.47,6.71,24.95,6.71,17.28,0,34.09-8.97,43.35-25.01l67.28-116.53c13.81-23.91,5.61-54.49-18.3-68.3h0c-7.87-4.55-16.47-6.71-24.95-6.71h0Z"/>
        </g>
        <g>
          <circle class="cls-1" cx="154.5" cy="473.24" r="42.5"/>
          <path d="m154.5,432.74c22.33,0,40.5,18.17,40.5,40.5s-18.17,40.5-40.5,40.5-40.5-18.17-40.5-40.5,18.17-40.5,40.5-40.5m0-4c-24.58,0-44.5,19.92-44.5,44.5s19.92,44.5,44.5,44.5,44.5-19.92,44.5-44.5-19.92-44.5-44.5-44.5h0Z"/>
        </g>
        <g>
          <circle class="cls-1" cx="304" cy="475.74" r="15"/>
          <path d="m304,462.74c7.17,0,13,5.83,13,13s-5.83,13-13,13-13-5.83-13-13,5.83-13,13-13m0-4c-9.39,0-17,7.61-17,17s7.61,17,17,17,17-7.61,17-17-7.61-17-17-17h0Z"/>
        </g>
        <g>
          <circle class="cls-1" cx="69" cy="358.74" r="15"/>
          <path d="m69,345.74c7.17,0,13,5.83,13,13s-5.83,13-13,13-13-5.83-13-13,5.83-13,13-13m0-4c-9.39,0-17,7.61-17,17s7.61,17,17,17,17-7.61,17-17-7.61-17-17-17h0Z"/>
        </g>
        <g>
          <circle class="cls-1" cx="220.5" cy="359.24" r="42.5"/>
          <path d="m220.5,318.74c22.33,0,40.5,18.17,40.5,40.5s-18.17,40.5-40.5,40.5-40.5-18.17-40.5-40.5,18.17-40.5,40.5-40.5m0-4c-24.58,0-44.5,19.92-44.5,44.5s19.92,44.5,44.5,44.5,44.5-19.92,44.5-44.5-19.92-44.5-44.5-44.5h0Z"/>
        </g>
        <text class="cls-3" transform="translate(124.94 498.16)"><tspan x="0" y="0">4</tspan></text>
        <text class="cls-3" transform="translate(192.94 384.16)"><tspan x="0" y="0">3</tspan></text>
        <polyline points="181.66 461.57 193.34 473.24 181.66 484.92"/>
        <polyline points="193.34 370.92 181.66 359.24 193.34 347.57"/>
      </g>
    </g>
  </g>
</svg>
