<?xml version="1.0" encoding="UTF-8"?>
<svg id="Layer_2" data-name="Layer 2" xmlns="http://www.w3.org/2000/svg" viewBox="0 0 1000 478" fill="#3F3F46">
  <defs>
    <style>
      .cls-1 {
        fill: #27272A;
      }
    </style>
  </defs>
  <g id="Layer_1-2" data-name="Layer 1">
    <g>
      <g>
        <rect class="cls-1" x="186" y="280" width="32" height="196"/>
        <path d="m216,282v192h-28v-192h28m4-4h-36v200h36v-200h0Z"/>
      </g>
      <g>
        <rect class="cls-1" x="774" y="280" width="32" height="196"/>
        <path d="m804,282v192h-28v-192h28m4-4h-36v200h36v-200h0Z"/>
      </g>
      <g>
        <rect class="cls-1" x="774" y="2" width="32" height="196"/>
        <path d="m804,4v192h-28V4h28m4-4h-36v200h36V0h0Z"/>
      </g>
      <g>
        <rect class="cls-1" x="186" y="2" width="32" height="196"/>
        <path d="m216,4v192h-28V4h28m4-4h-36v200h36V0h0Z"/>
      </g>
      <g>
        <path class="cls-1" d="m50,287c-26.47,0-48-21.53-48-48s21.53-48,48-48h900c26.47,0,48,21.53,48,48s-21.53,48-48,48H50Z"/>
        <path d="m950,193c25.36,0,46,20.64,46,46s-20.64,46-46,46H50c-25.36,0-46-20.64-46-46s20.64-46,46-46h900m0-4H50c-27.61,0-50,22.39-50,50s22.39,50,50,50h900c27.61,0,50-22.39,50-50s-22.39-50-50-50h0Z"/>
      </g>
      <g>
        <circle class="cls-1" cx="521.5" cy="238.56" r="42.5"/>
        <path d="m521.5,198.06c22.33,0,40.5,18.17,40.5,40.5s-18.17,40.5-40.5,40.5-40.5-18.17-40.5-40.5,18.17-40.5,40.5-40.5m0-4c-24.58,0-44.5,19.92-44.5,44.5s19.92,44.5,44.5,44.5,44.5-19.92,44.5-44.5-19.92-44.5-44.5-44.5h0Z"/>
      </g>
    </g>
  </g>
</svg>
