<svg id="Capa_1" enable-background="new 0 0 512 512" height="512" viewBox="0 0 512 512" width="512" xmlns="http://www.w3.org/2000/svg"><g><path d="m379.887 128.204h23.896c2.399 0 4.345-1.945 4.345-4.345v-69.514c0-2.4-1.945-4.345-4.345-4.345h-23.896c-2.4 0-4.345 1.945-4.345 4.345v69.515c0 2.399 1.945 4.344 4.345 4.344z"/><path d="m325.578 128.204h23.896c2.4 0 4.345-1.945 4.345-4.345v-69.514c0-2.4-1.945-4.345-4.345-4.345h-23.896c-2.399 0-4.345 1.945-4.345 4.345v69.515c0 2.399 1.946 4.344 4.345 4.344z"/><path d="m271.27 128.204h23.896c2.399 0 4.345-1.945 4.345-4.345v-69.514c0-2.4-1.945-4.345-4.345-4.345h-23.896c-2.399 0-4.344 1.945-4.344 4.345v69.515c-.001 2.399 1.944 4.344 4.344 4.344z"/><path d="m216.961 128.204h23.896c2.399 0 4.344-1.945 4.344-4.345v-69.514c0-2.4-1.945-4.345-4.344-4.345h-23.896c-2.399 0-4.345 1.945-4.345 4.345v69.515c.001 2.399 1.946 4.344 4.345 4.344z"/><path d="m162.653 128.204h23.896c2.399 0 4.345-1.945 4.345-4.345v-69.514c0-2.4-1.945-4.345-4.345-4.345h-23.896c-2.4 0-4.345 1.945-4.345 4.345v69.515c0 2.399 1.945 4.344 4.345 4.344z"/><path d="m132.24 92.797h-23.896c-2.399 0-4.345 1.945-4.345 4.345v69.515c0 2.399 1.945 4.345 4.345 4.345h23.896c2.4 0 4.345-1.945 4.345-4.345v-69.515c0-2.4-1.945-4.345-4.345-4.345z"/><path d="m448 141.899c5.522 0 10-4.477 10-10v-121.899c0-5.523-4.478-10-10-10h-315.571c-2.652 0-5.195 1.054-7.071 2.929l-68.429 68.428c-1.875 1.876-2.929 4.419-2.929 7.072v131.688c0 5.523 4.478 10 10 10h6.293v22.909h-6.293c-5.522 0-10 4.477-10 10v248.974c0 5.523 4.478 10 10 10h384c5.522 0 10-4.477 10-10v-256.351c0-5.523-4.478-10-10-10h-6.293v-93.75zm-10-20h-6.293c-5.522 0-10 4.477-10 10v113.75c0 5.523 4.478 10 10 10h6.293v236.351h-364v-228.974h6.293c5.522 0 10-4.477 10-10v-42.909c0-5.523-4.478-10-10-10h-6.293v-117.546l62.571-62.571h301.429z"/></g></svg>